<svg version="1.1" id="Layer_1" xmlns="http://www.w3.org/2000/svg" xmlns:xlink="http://www.w3.org/1999/xlink" x="0px" y="0px"
	 width="100%" viewBox="0 0 512 512" enable-background="new 0 0 512 512" xml:space="preserve">
<path fill="#000000" opacity="1.000000" stroke="none" 
	d="
M330.000000,513.000000 
	C326.307098,513.000000 322.614166,513.000000 318.367188,512.651855 
	C310.815094,509.546173 306.711334,503.558899 301.726624,498.401733 
	C287.602173,483.788483 273.070435,469.568817 258.685059,455.208191 
	C258.138824,454.662933 257.447174,454.263306 256.701660,453.704651 
	C241.560287,468.876373 226.678604,483.912445 211.638321,498.788116 
	C206.634750,503.736938 201.224396,508.274445 196.000000,513.000000 
	C191.975449,513.000000 187.950912,513.000000 183.385773,512.659668 
	C177.421051,507.237152 171.814941,502.333923 166.607605,497.038513 
	C152.215927,482.403351 137.990753,467.604462 126.263748,455.513794 
	C112.533455,467.795349 99.087036,479.699310 85.794006,491.772186 
	C80.217506,496.836823 73.737938,498.130981 66.657188,495.182343 
	C59.810421,492.331146 56.924149,487.363312 56.932030,479.903290 
	C57.034523,382.913422 56.956257,285.923370 57.087517,188.933609 
	C57.097443,181.601791 57.706467,174.142166 59.146324,166.964462 
	C63.909866,143.218094 71.624557,120.502548 84.057541,99.527229 
	C99.103439,74.143730 118.583130,52.801144 142.841263,36.113491 
	C164.877701,20.954172 189.000229,10.206012 215.404175,4.982285 
	C221.622025,3.752149 227.802383,2.332481 234.000000,1.000002 
	C248.354233,1.000000 262.708466,1.000000 277.680908,1.395816 
	C281.201355,2.193908 284.099121,2.632794 287.006622,2.992427 
	C303.893890,5.081218 319.955017,10.109382 335.457550,16.931900 
	C366.219299,30.469889 392.205841,50.269379 413.154205,76.630249 
	C429.960754,97.779144 442.208435,121.304909 449.588165,147.254547 
	C454.548309,164.696106 457.174805,182.449814 457.122681,200.750565 
	C456.856964,294.026123 457.004761,387.302795 456.966492,480.579102 
	C456.965729,482.481781 456.673767,484.442902 456.160980,486.277069 
	C453.452515,495.964294 438.018921,501.136780 428.037567,491.723755 
	C414.983917,479.413361 401.336670,467.732422 387.752655,455.609283 
	C380.779510,462.617950 371.211609,472.319702 361.547607,481.924835 
	C351.078430,492.330231 340.519684,502.645447 330.000000,513.000000 
M203.974182,256.543030 
	C207.315170,253.039627 211.244751,249.929718 213.895309,245.964767 
	C225.416428,228.730591 226.578049,210.762054 215.917252,192.707092 
	C206.520096,176.792191 191.907501,168.504318 173.769333,168.241714 
	C158.614594,168.022293 145.830765,174.493759 135.853195,186.474792 
	C128.375580,195.453888 124.501663,205.659210 124.127342,217.015274 
	C123.736290,228.878906 128.027817,239.696594 135.460556,248.705826 
	C144.573486,259.751587 156.605560,266.173737 171.174835,266.974792 
	C183.107620,267.630859 193.750015,263.843689 203.974182,256.543030 
M312.445190,258.039185 
	C313.058472,258.598267 313.588379,259.312317 314.297241,259.693726 
	C331.071564,268.718567 347.800598,270.153381 364.845703,260.071014 
	C381.419983,250.267181 389.742493,235.459198 389.736023,216.786697 
	C389.731018,202.263596 383.382416,189.927902 371.908386,180.190918 
	C363.106476,172.721497 353.092041,168.410263 341.996368,168.213867 
	C324.351074,167.901550 309.732758,175.340820 299.694489,189.987656 
	C291.180298,202.410706 288.609161,216.197403 292.907288,231.092377 
	C296.142365,242.303482 302.967163,250.745605 312.445190,258.039185 
z"/>
</svg>